<mxfile host="Electron" agent="Mozilla/5.0 (X11; Linux x86_64) AppleWebKit/537.36 (KHTML, like Gecko) draw.io/26.1.1 Chrome/132.0.6834.210 Electron/34.3.3 Safari/537.36" version="26.1.1">
  <diagram name="Seite-1" id="agwqZC_TU5OIGDymuj-D">
    <mxGraphModel dx="1000" dy="764" grid="1" gridSize="10" guides="1" tooltips="1" connect="1" arrows="1" fold="1" page="1" pageScale="1" pageWidth="827" pageHeight="1169" math="0" shadow="0">
      <root>
        <mxCell id="0" />
        <mxCell id="1" parent="0" />
        <mxCell id="TJZsFvZYOPBWQWU83Hrf-61" style="edgeStyle=orthogonalEdgeStyle;rounded=0;orthogonalLoop=1;jettySize=auto;html=1;exitX=1;exitY=0.5;exitDx=0;exitDy=0;" parent="1" source="TJZsFvZYOPBWQWU83Hrf-1" target="TJZsFvZYOPBWQWU83Hrf-39" edge="1">
          <mxGeometry relative="1" as="geometry" />
        </mxCell>
        <mxCell id="TJZsFvZYOPBWQWU83Hrf-1" value="Serializer" style="rounded=0;whiteSpace=wrap;html=1;" parent="1" vertex="1">
          <mxGeometry x="40" y="270" width="80" height="40" as="geometry" />
        </mxCell>
        <mxCell id="TJZsFvZYOPBWQWU83Hrf-8" value="&lt;div&gt;&lt;i&gt;&amp;lt;&amp;lt;enumeration&amp;gt;&amp;gt;&lt;/i&gt;&lt;/div&gt;&lt;b&gt;Move&lt;/b&gt;" style="swimlane;fontStyle=0;childLayout=stackLayout;horizontal=1;startSize=40;fillColor=none;horizontalStack=0;resizeParent=1;resizeParentMax=0;resizeLast=0;collapsible=1;marginBottom=0;whiteSpace=wrap;html=1;" parent="1" vertex="1">
          <mxGeometry x="760" y="348" width="140" height="126" as="geometry">
            <mxRectangle x="440" y="240" width="140" height="40" as="alternateBounds" />
          </mxGeometry>
        </mxCell>
        <mxCell id="TJZsFvZYOPBWQWU83Hrf-19" value="LEFT" style="text;strokeColor=none;fillColor=none;align=left;verticalAlign=top;spacingLeft=4;spacingRight=4;overflow=hidden;rotatable=0;points=[[0,0.5],[1,0.5]];portConstraint=eastwest;whiteSpace=wrap;html=1;" parent="TJZsFvZYOPBWQWU83Hrf-8" vertex="1">
          <mxGeometry y="40" width="140" height="26" as="geometry" />
        </mxCell>
        <mxCell id="TJZsFvZYOPBWQWU83Hrf-20" value="RIGHT" style="text;strokeColor=none;fillColor=none;align=left;verticalAlign=top;spacingLeft=4;spacingRight=4;overflow=hidden;rotatable=0;points=[[0,0.5],[1,0.5]];portConstraint=eastwest;whiteSpace=wrap;html=1;" parent="TJZsFvZYOPBWQWU83Hrf-8" vertex="1">
          <mxGeometry y="66" width="140" height="26" as="geometry" />
        </mxCell>
        <mxCell id="TJZsFvZYOPBWQWU83Hrf-21" value="NONE" style="text;strokeColor=none;fillColor=none;align=left;verticalAlign=top;spacingLeft=4;spacingRight=4;overflow=hidden;rotatable=0;points=[[0,0.5],[1,0.5]];portConstraint=eastwest;whiteSpace=wrap;html=1;" parent="TJZsFvZYOPBWQWU83Hrf-8" vertex="1">
          <mxGeometry y="92" width="140" height="26" as="geometry" />
        </mxCell>
        <mxCell id="TJZsFvZYOPBWQWU83Hrf-22" value="" style="line;strokeWidth=1;fillColor=none;align=left;verticalAlign=middle;spacingTop=-1;spacingLeft=3;spacingRight=3;rotatable=0;labelPosition=right;points=[];portConstraint=eastwest;strokeColor=inherit;" parent="TJZsFvZYOPBWQWU83Hrf-8" vertex="1">
          <mxGeometry y="118" width="140" height="8" as="geometry" />
        </mxCell>
        <mxCell id="TJZsFvZYOPBWQWU83Hrf-27" value="Transition" style="swimlane;fontStyle=0;childLayout=stackLayout;horizontal=1;startSize=26;fillColor=none;horizontalStack=0;resizeParent=1;resizeParentMax=0;resizeLast=0;collapsible=1;marginBottom=0;whiteSpace=wrap;html=1;" parent="1" vertex="1">
          <mxGeometry x="560" y="320" width="140" height="104" as="geometry" />
        </mxCell>
        <mxCell id="TJZsFvZYOPBWQWU83Hrf-28" value="+ newState: State" style="text;strokeColor=none;fillColor=none;align=left;verticalAlign=top;spacingLeft=4;spacingRight=4;overflow=hidden;rotatable=0;points=[[0,0.5],[1,0.5]];portConstraint=eastwest;whiteSpace=wrap;html=1;" parent="TJZsFvZYOPBWQWU83Hrf-27" vertex="1">
          <mxGeometry y="26" width="140" height="26" as="geometry" />
        </mxCell>
        <mxCell id="TJZsFvZYOPBWQWU83Hrf-29" value="+ newSymbol: type" style="text;strokeColor=none;fillColor=none;align=left;verticalAlign=top;spacingLeft=4;spacingRight=4;overflow=hidden;rotatable=0;points=[[0,0.5],[1,0.5]];portConstraint=eastwest;whiteSpace=wrap;html=1;" parent="TJZsFvZYOPBWQWU83Hrf-27" vertex="1">
          <mxGeometry y="52" width="140" height="26" as="geometry" />
        </mxCell>
        <mxCell id="TJZsFvZYOPBWQWU83Hrf-30" value="+ move: Move" style="text;strokeColor=none;fillColor=none;align=left;verticalAlign=top;spacingLeft=4;spacingRight=4;overflow=hidden;rotatable=0;points=[[0,0.5],[1,0.5]];portConstraint=eastwest;whiteSpace=wrap;html=1;" parent="TJZsFvZYOPBWQWU83Hrf-27" vertex="1">
          <mxGeometry y="78" width="140" height="26" as="geometry" />
        </mxCell>
        <mxCell id="TJZsFvZYOPBWQWU83Hrf-31" value="State" style="swimlane;fontStyle=0;childLayout=stackLayout;horizontal=1;startSize=26;fillColor=none;horizontalStack=0;resizeParent=1;resizeParentMax=0;resizeLast=0;collapsible=1;marginBottom=0;whiteSpace=wrap;html=1;" parent="1" vertex="1">
          <mxGeometry x="280" y="333" width="240" height="78" as="geometry" />
        </mxCell>
        <mxCell id="TJZsFvZYOPBWQWU83Hrf-32" value="+ transitions: Map&amp;lt;char, Transition&amp;gt;" style="text;strokeColor=none;fillColor=none;align=left;verticalAlign=top;spacingLeft=4;spacingRight=4;overflow=hidden;rotatable=0;points=[[0,0.5],[1,0.5]];portConstraint=eastwest;whiteSpace=wrap;html=1;" parent="TJZsFvZYOPBWQWU83Hrf-31" vertex="1">
          <mxGeometry y="26" width="240" height="26" as="geometry" />
        </mxCell>
        <mxCell id="TJZsFvZYOPBWQWU83Hrf-62" value="+ terminates: boolean" style="text;strokeColor=none;fillColor=none;align=left;verticalAlign=top;spacingLeft=4;spacingRight=4;overflow=hidden;rotatable=0;points=[[0,0.5],[1,0.5]];portConstraint=eastwest;whiteSpace=wrap;html=1;" parent="TJZsFvZYOPBWQWU83Hrf-31" vertex="1">
          <mxGeometry y="52" width="240" height="26" as="geometry" />
        </mxCell>
        <mxCell id="TJZsFvZYOPBWQWU83Hrf-39" value="Ãœbergangsfunktion" style="swimlane;fontStyle=0;childLayout=stackLayout;horizontal=1;startSize=26;fillColor=none;horizontalStack=0;resizeParent=1;resizeParentMax=0;resizeLast=0;collapsible=1;marginBottom=0;whiteSpace=wrap;html=1;" parent="1" vertex="1">
          <mxGeometry x="80" y="330" width="140" height="52" as="geometry" />
        </mxCell>
        <mxCell id="TJZsFvZYOPBWQWU83Hrf-40" value="+ states: List&amp;lt;State&amp;gt;" style="text;strokeColor=none;fillColor=none;align=left;verticalAlign=top;spacingLeft=4;spacingRight=4;overflow=hidden;rotatable=0;points=[[0,0.5],[1,0.5]];portConstraint=eastwest;whiteSpace=wrap;html=1;" parent="TJZsFvZYOPBWQWU83Hrf-39" vertex="1">
          <mxGeometry y="26" width="140" height="26" as="geometry" />
        </mxCell>
        <mxCell id="TJZsFvZYOPBWQWU83Hrf-43" style="edgeStyle=orthogonalEdgeStyle;rounded=0;orthogonalLoop=1;jettySize=auto;html=1;exitX=1;exitY=0.5;exitDx=0;exitDy=0;" parent="1" source="TJZsFvZYOPBWQWU83Hrf-30" target="TJZsFvZYOPBWQWU83Hrf-8" edge="1">
          <mxGeometry relative="1" as="geometry" />
        </mxCell>
        <mxCell id="TJZsFvZYOPBWQWU83Hrf-44" style="edgeStyle=orthogonalEdgeStyle;rounded=0;orthogonalLoop=1;jettySize=auto;html=1;exitX=1;exitY=0.5;exitDx=0;exitDy=0;" parent="1" source="TJZsFvZYOPBWQWU83Hrf-32" target="TJZsFvZYOPBWQWU83Hrf-27" edge="1">
          <mxGeometry relative="1" as="geometry" />
        </mxCell>
        <mxCell id="TJZsFvZYOPBWQWU83Hrf-45" style="edgeStyle=orthogonalEdgeStyle;rounded=0;orthogonalLoop=1;jettySize=auto;html=1;exitX=1;exitY=0.5;exitDx=0;exitDy=0;" parent="1" source="TJZsFvZYOPBWQWU83Hrf-40" target="TJZsFvZYOPBWQWU83Hrf-31" edge="1">
          <mxGeometry relative="1" as="geometry" />
        </mxCell>
        <mxCell id="TJZsFvZYOPBWQWU83Hrf-46" value="MachineState" style="swimlane;fontStyle=0;childLayout=stackLayout;horizontal=1;startSize=26;fillColor=none;horizontalStack=0;resizeParent=1;resizeParentMax=0;resizeLast=0;collapsible=1;marginBottom=0;whiteSpace=wrap;html=1;" parent="1" vertex="1">
          <mxGeometry x="190" y="450" width="190" height="78" as="geometry" />
        </mxCell>
        <mxCell id="TJZsFvZYOPBWQWU83Hrf-59" value="+ lsk: LinkedListItem&amp;lt;char&amp;gt;" style="text;strokeColor=none;fillColor=none;align=left;verticalAlign=top;spacingLeft=4;spacingRight=4;overflow=hidden;rotatable=0;points=[[0,0.5],[1,0.5]];portConstraint=eastwest;whiteSpace=wrap;html=1;" parent="TJZsFvZYOPBWQWU83Hrf-46" vertex="1">
          <mxGeometry y="26" width="190" height="26" as="geometry" />
        </mxCell>
        <mxCell id="TJZsFvZYOPBWQWU83Hrf-48" value="+ state: State" style="text;strokeColor=none;fillColor=none;align=left;verticalAlign=top;spacingLeft=4;spacingRight=4;overflow=hidden;rotatable=0;points=[[0,0.5],[1,0.5]];portConstraint=eastwest;whiteSpace=wrap;html=1;" parent="TJZsFvZYOPBWQWU83Hrf-46" vertex="1">
          <mxGeometry y="52" width="190" height="26" as="geometry" />
        </mxCell>
        <mxCell id="TJZsFvZYOPBWQWU83Hrf-50" value="Machine" style="swimlane;fontStyle=0;childLayout=stackLayout;horizontal=1;startSize=26;fillColor=none;horizontalStack=0;resizeParent=1;resizeParentMax=0;resizeLast=0;collapsible=1;marginBottom=0;whiteSpace=wrap;html=1;" parent="1" vertex="1">
          <mxGeometry x="20" y="450" width="140" height="86" as="geometry" />
        </mxCell>
        <mxCell id="TJZsFvZYOPBWQWU83Hrf-51" value="+ state: MachineState" style="text;strokeColor=none;fillColor=none;align=left;verticalAlign=top;spacingLeft=4;spacingRight=4;overflow=hidden;rotatable=0;points=[[0,0.5],[1,0.5]];portConstraint=eastwest;whiteSpace=wrap;html=1;" parent="TJZsFvZYOPBWQWU83Hrf-50" vertex="1">
          <mxGeometry y="26" width="140" height="26" as="geometry" />
        </mxCell>
        <mxCell id="TJZsFvZYOPBWQWU83Hrf-55" value="" style="line;strokeWidth=1;fillColor=none;align=left;verticalAlign=middle;spacingTop=-1;spacingLeft=3;spacingRight=3;rotatable=0;labelPosition=right;points=[];portConstraint=eastwest;strokeColor=inherit;" parent="TJZsFvZYOPBWQWU83Hrf-50" vertex="1">
          <mxGeometry y="52" width="140" height="8" as="geometry" />
        </mxCell>
        <mxCell id="TJZsFvZYOPBWQWU83Hrf-57" value="+ step()" style="text;strokeColor=none;fillColor=none;align=left;verticalAlign=top;spacingLeft=4;spacingRight=4;overflow=hidden;rotatable=0;points=[[0,0.5],[1,0.5]];portConstraint=eastwest;whiteSpace=wrap;html=1;" parent="TJZsFvZYOPBWQWU83Hrf-50" vertex="1">
          <mxGeometry y="60" width="140" height="26" as="geometry" />
        </mxCell>
        <mxCell id="TJZsFvZYOPBWQWU83Hrf-58" style="edgeStyle=orthogonalEdgeStyle;rounded=0;orthogonalLoop=1;jettySize=auto;html=1;exitX=1;exitY=0.5;exitDx=0;exitDy=0;" parent="1" source="TJZsFvZYOPBWQWU83Hrf-51" target="TJZsFvZYOPBWQWU83Hrf-46" edge="1">
          <mxGeometry relative="1" as="geometry" />
        </mxCell>
        <mxCell id="TJZsFvZYOPBWQWU83Hrf-60" style="edgeStyle=orthogonalEdgeStyle;rounded=0;orthogonalLoop=1;jettySize=auto;html=1;exitX=1;exitY=0.5;exitDx=0;exitDy=0;" parent="1" source="TJZsFvZYOPBWQWU83Hrf-48" target="TJZsFvZYOPBWQWU83Hrf-31" edge="1">
          <mxGeometry relative="1" as="geometry" />
        </mxCell>
        <mxCell id="TJZsFvZYOPBWQWU83Hrf-64" style="edgeStyle=orthogonalEdgeStyle;rounded=0;orthogonalLoop=1;jettySize=auto;html=1;exitX=0;exitY=0.5;exitDx=0;exitDy=0;" parent="1" source="TJZsFvZYOPBWQWU83Hrf-63" target="TJZsFvZYOPBWQWU83Hrf-39" edge="1">
          <mxGeometry relative="1" as="geometry" />
        </mxCell>
        <mxCell id="TJZsFvZYOPBWQWU83Hrf-63" value="Deserializer" style="rounded=0;whiteSpace=wrap;html=1;" parent="1" vertex="1">
          <mxGeometry x="170" y="270" width="80" height="40" as="geometry" />
        </mxCell>
        <mxCell id="TJZsFvZYOPBWQWU83Hrf-65" value="&lt;h1 style=&quot;margin-top: 0px;&quot;&gt;Serialized Data&lt;/h1&gt;&lt;p&gt;- Ãœbergangsfunktion&lt;/p&gt;&lt;p&gt;&lt;br&gt;&lt;/p&gt;" style="text;html=1;whiteSpace=wrap;overflow=hidden;rounded=0;" parent="1" vertex="1">
          <mxGeometry x="260" y="60" width="380" height="120" as="geometry" />
        </mxCell>
        <mxCell id="pvoaH-eM6HF3G7Z4RXcV-3" value="TapeCell" style="swimlane;fontStyle=1;align=center;verticalAlign=top;childLayout=stackLayout;horizontal=1;startSize=26;horizontalStack=0;resizeParent=1;resizeParentMax=0;resizeLast=0;collapsible=1;marginBottom=0;whiteSpace=wrap;html=1;" vertex="1" parent="1">
          <mxGeometry x="480" y="470" width="160" height="34" as="geometry" />
        </mxCell>
        <mxCell id="pvoaH-eM6HF3G7Z4RXcV-9" style="edgeStyle=orthogonalEdgeStyle;rounded=0;orthogonalLoop=1;jettySize=auto;html=1;exitX=0.5;exitY=0;exitDx=0;exitDy=0;entryX=0.5;entryY=1;entryDx=0;entryDy=0;" edge="1" parent="1" source="pvoaH-eM6HF3G7Z4RXcV-7" target="pvoaH-eM6HF3G7Z4RXcV-3">
          <mxGeometry relative="1" as="geometry" />
        </mxCell>
        <mxCell id="pvoaH-eM6HF3G7Z4RXcV-7" value="Tape" style="swimlane;fontStyle=1;align=center;verticalAlign=top;childLayout=stackLayout;horizontal=1;startSize=26;horizontalStack=0;resizeParent=1;resizeParentMax=0;resizeLast=0;collapsible=1;marginBottom=0;whiteSpace=wrap;html=1;" vertex="1" parent="1">
          <mxGeometry x="480" y="560" width="160" height="52" as="geometry" />
        </mxCell>
        <mxCell id="pvoaH-eM6HF3G7Z4RXcV-8" value="+ getHead(): TapeCell" style="text;strokeColor=none;fillColor=none;align=left;verticalAlign=top;spacingLeft=4;spacingRight=4;overflow=hidden;rotatable=0;points=[[0,0.5],[1,0.5]];portConstraint=eastwest;whiteSpace=wrap;html=1;" vertex="1" parent="pvoaH-eM6HF3G7Z4RXcV-7">
          <mxGeometry y="26" width="160" height="26" as="geometry" />
        </mxCell>
      </root>
    </mxGraphModel>
  </diagram>
</mxfile>
